{"title":"Sterke Verhalen-AC3-DVDRip 2010 Nederlands TBS","uid":6018425,"size":1461485090,"categoryP":"video","categoryS":"movies","magnet":"?xt=urn:btih:a39e1416083e566611d9b82cc3a1425d751989f8&amp;dn=Sterke+Verhalen-AC3-DVDRip+2010+Nederlands+TBS&amp;tr=udp%3A%2F%2Ftracker.openbittorrent.com%3A80&amp;tr=udp%3A%2F%2Fopen.demonii.com%3A1337&amp;tr=udp%3A%2F%2Ftracker.coppersurfer.tk%3A6969&amp;tr=udp%3A%2F%2Fexodus.desync.com%3A6969","seeders":2,"leechers":1,"uploader":"FatFreddy30","files":-1,"time":1291721823,"description":"Nederland\nKomedie\n85 minuten\n\ngeregisseerd door Teddy Cherim en Kees van Nieuwkerk\nmet Achmed Akkabi, Sallie Harmsen en Halina Reijn\n\nFilm over vijf Amsterdamse jongeren (twee jongens en drie meisjes) die na het behalen van hun eindexamen een feest organiseren maar met de kaartverkoop wil het niet zo vlotten. Ze bedenken een gewaagd plan om de zaal toch vol te krijgen. Daarvoor weten ze een jongen uit de provincie te strikken die naar de stad is gekomen om te gaan studeren en probeert &quot;in te burgeren&quot;. Buiten hun gezamenlijke wens om een superfeest voor elkaar te krijgen hebben ze ook allemaal hun eigen belangen bij het slagen van het feest. Maar niet alles loopt zoals gepland.\n\nEnglish:\n\nComedy about the adventures of a group of friends in Amsterdam, who are planning a party during their summer holiday. When the ticket sales are disappointing they think of a new and exiting way to attract more people to the party.\n &lt;a href=&quot;\nhttp://www.moviemeter.nl/film/66336&quot; rel=&quot;nofollow&quot; target=&quot;_NEW&quot;&gt;\nhttp://www.moviemeter.nl/film/66336&lt;/a&gt;\n &lt;a href=&quot;\nhttp://www.imdb.com/title/tt1666332/&quot; rel=&quot;nofollow&quot; target=&quot;_NEW&quot;&gt;\nhttp://www.imdb.com/title/tt1666332/&lt;/a&gt;\n\nAudio: Dutch / Nederlands.  No Subs / Geen ondertitels.\n\nGeneral\nComplete name                    : Sterke Verhalen-AC3-DVDRip 2010 Nederlands TBS\\Sterke Verhalen-AC3-DVDRip 2010 Nederlands.avi\nFormat                           : AVI\nFormat/Info                      : Audio Video Interleave\nFile size                        : 1.36 GiB\nDuration                         : 1h 21mn\nOverall bit rate                 : 2 380 Kbps\nWriting application              : VirtualDubMod 1.5.4.1 (build 2178/release)\nWriting library                  : VirtualDubMod build 2178/release\n\nVideo\nID                               : 0\nFormat                           : MPEG-4 Visual\nFormat profile                   : Simple@L3\nFormat settings, BVOP            : No\nFormat settings, QPel            : No\nFormat settings, GMC             : No warppoints\nFormat settings, Matrix          : Default (H.263)\nCodec ID                         : XVID\nCodec ID/Hint                    : XviD\nDuration                         : 1h 21mn\nBit rate                         : 1 922 Kbps\nWidth                            : 720 pixels\nHeight                           : 304 pixels\nDisplay aspect ratio             : 2.35:1\nFrame rate                       : 25.000 fps\nResolution                       : 8 bits\nColorimetry                      : 4:2:0\nScan type                        : Progressive\nBits/(Pixel*Frame)               : 0.351\nStream size                      : 1.10 GiB (81%)\nWriting library                  : XviD 1.1.2 (UTC 2006-11-01)\n\nAudio\nID                               : 1\nFormat                           : AC-3\nFormat/Info                      : Audio Coding 3\nCodec ID                         : 2000\nDuration                         : 1h 21mn\nBit rate mode                    : Constant\nBit rate                         : 448 Kbps\nChannel(s)                       : 6 channels\nChannel positions                : Front: L C R, Surround: L R, LFE\nSampling rate                    : 48.0 KHz\nStream size                      : 262 MiB (19%)\nAlignment                        : Split accross interleaves\nInterleave, duration             : 40 ms (1.00 video frame)\nInterleave, preload duration     : 500 ms\n\nThanks to hannes3-FGTR.\n\nBlackbeard  TBS","torrent":{"xt":"urn:btih:a39e1416083e566611d9b82cc3a1425d751989f8","amp;dn":"Sterke+Verhalen-AC3-DVDRip+2010+Nederlands+TBS","amp;tr":["udp%3A%2F%2Ftracker.openbittorrent.com%3A80","udp%3A%2F%2Fopen.demonii.com%3A1337","udp%3A%2F%2Ftracker.coppersurfer.tk%3A6969","udp%3A%2F%2Fexodus.desync.com%3A6969"],"infoHash":"a39e1416083e566611d9b82cc3a1425d751989f8","infoHashBuffer":{"type":"Buffer","data":[163,158,20,22,8,62,86,102,17,217,184,44,195,161,66,93,117,25,137,248]},"announce":[],"urlList":[]}}